<svg width="30" height="30" viewBox="0 0 30 30" fill="none" xmlns="http://www.w3.org/2000/svg">
<path d="M21.6751 6.825C21.3785 6.825 21.0884 6.91297 20.8418 7.0778C20.5951 7.24262 20.4028 7.47689 20.2893 7.75097C20.1758 8.02506 20.1461 8.32666 20.2039 8.61764C20.2618 8.90861 20.4047 9.17588 20.6145 9.38566C20.8242 9.59544 21.0915 9.7383 21.3825 9.79618C21.6735 9.85406 21.9751 9.82435 22.2491 9.71082C22.5232 9.59729 22.7575 9.40503 22.9223 9.15836C23.0871 8.91168 23.1751 8.62167 23.1751 8.325C23.1751 7.92718 23.0171 7.54564 22.7358 7.26434C22.4545 6.98304 22.0729 6.825 21.6751 6.825ZM27.4251 9.85C27.4008 8.81287 27.2066 7.78675 26.8501 6.8125C26.5323 5.97892 26.0376 5.2241 25.4001 4.6C24.7811 3.95928 24.0246 3.46772 23.1876 3.1625C22.2159 2.7952 21.1887 2.59651 20.1501 2.575C18.8251 2.5 18.4001 2.5 15.0001 2.5C11.6001 2.5 11.1751 2.5 9.85012 2.575C8.81156 2.59651 7.7843 2.7952 6.81262 3.1625C5.97722 3.47081 5.22129 3.96195 4.60012 4.6C3.9594 5.21897 3.46784 5.97555 3.16262 6.8125C2.79532 7.78418 2.59663 8.81144 2.57512 9.85C2.50012 11.175 2.50012 11.6 2.50012 15C2.50012 18.4 2.50012 18.825 2.57512 20.15C2.59663 21.1886 2.79532 22.2158 3.16262 23.1875C3.46784 24.0245 3.9594 24.781 4.60012 25.4C5.22129 26.038 5.97722 26.5292 6.81262 26.8375C7.7843 27.2048 8.81156 27.4035 9.85012 27.425C11.1751 27.5 11.6001 27.5 15.0001 27.5C18.4001 27.5 18.8251 27.5 20.1501 27.425C21.1887 27.4035 22.2159 27.2048 23.1876 26.8375C24.0246 26.5323 24.7811 26.0407 25.4001 25.4C26.0404 24.7782 26.5355 24.0227 26.8501 23.1875C27.2066 22.2132 27.4008 21.1871 27.4251 20.15C27.4251 18.825 27.5001 18.4 27.5001 15C27.5001 11.6 27.5001 11.175 27.4251 9.85ZM25.1751 20C25.166 20.7935 25.0223 21.5796 24.7501 22.325C24.5505 22.869 24.23 23.3605 23.8126 23.7625C23.4072 24.1756 22.9167 24.4955 22.3751 24.7C21.6297 24.9722 20.8436 25.1159 20.0501 25.125C18.8001 25.1875 18.3376 25.2 15.0501 25.2C11.7626 25.2 11.3001 25.2 10.0501 25.125C9.22624 25.1404 8.40587 25.0136 7.62512 24.75C7.10735 24.5351 6.63932 24.216 6.25012 23.8125C5.83523 23.4109 5.51868 22.919 5.32512 22.375C5.01994 21.6189 4.85068 20.8149 4.82512 20C4.82512 18.75 4.75012 18.2875 4.75012 15C4.75012 11.7125 4.75012 11.25 4.82512 10C4.83072 9.18882 4.97881 8.38493 5.26262 7.625C5.48268 7.09739 5.82045 6.62707 6.25012 6.25C6.62989 5.82021 7.09923 5.47887 7.62512 5.25C8.38706 4.97505 9.19012 4.83135 10.0001 4.825C11.2501 4.825 11.7126 4.75 15.0001 4.75C18.2876 4.75 18.7501 4.75 20.0001 4.825C20.7936 4.8341 21.5798 4.97781 22.3251 5.25C22.8932 5.46082 23.403 5.80356 23.8126 6.25C24.2222 6.63397 24.5423 7.10342 24.7501 7.625C25.0279 8.38617 25.1717 9.18972 25.1751 10C25.2376 11.25 25.2501 11.7125 25.2501 15C25.2501 18.2875 25.2376 18.75 25.1751 20ZM15.0001 8.5875C13.7324 8.58997 12.4938 8.96816 11.4409 9.67427C10.3881 10.3804 9.5681 11.3827 9.08466 12.5547C8.60123 13.7266 8.47603 15.0156 8.72486 16.2587C8.9737 17.5017 9.58542 18.6432 10.4827 19.5387C11.38 20.4343 12.5226 21.0438 13.7662 21.2902C15.0098 21.5366 16.2985 21.4089 17.4695 20.9232C18.6405 20.4375 19.6412 19.6155 20.3453 18.5613C21.0493 17.507 21.4251 16.2677 21.4251 15C21.4268 14.1564 21.2616 13.3208 20.9392 12.5412C20.6167 11.7616 20.1433 11.0535 19.5462 10.4576C18.9491 9.86161 18.2401 9.3896 17.4599 9.06866C16.6797 8.74773 15.8437 8.5842 15.0001 8.5875ZM15.0001 19.1625C14.1769 19.1625 13.3721 18.9184 12.6876 18.461C12.003 18.0036 11.4695 17.3535 11.1545 16.5929C10.8394 15.8323 10.757 14.9954 10.9176 14.1879C11.0782 13.3805 11.4747 12.6388 12.0568 12.0567C12.6389 11.4745 13.3806 11.0781 14.1881 10.9175C14.9955 10.7569 15.8324 10.8393 16.593 11.1544C17.3536 11.4694 18.0037 12.0029 18.4611 12.6874C18.9185 13.372 19.1626 14.1767 19.1626 15C19.1626 15.5466 19.055 16.0879 18.8458 16.5929C18.6366 17.0979 18.33 17.5568 17.9435 17.9433C17.5569 18.3299 17.0981 18.6365 16.593 18.8456C16.088 19.0548 15.5467 19.1625 15.0001 19.1625Z" fill="white"/>
</svg>
