<svg width="28" height="20" viewBox="0 0 28 20" fill="none" xmlns="http://www.w3.org/2000/svg">
<path d="M27.75 7.13748C27.8118 5.3483 27.4205 3.5725 26.6125 1.97498C26.0642 1.31948 25.3034 0.877118 24.4625 0.72498C20.9844 0.409387 17.4919 0.280035 14 0.33748C10.5208 0.277428 7.04086 0.402605 3.57497 0.71248C2.88975 0.837126 2.25562 1.15853 1.74997 1.63748C0.624973 2.67498 0.499973 4.44998 0.374973 5.94998C0.193613 8.64694 0.193613 11.353 0.374973 14.05C0.411135 14.8942 0.53684 15.7323 0.749972 16.55C0.900691 17.1813 1.20563 17.7654 1.63747 18.25C2.14656 18.7543 2.79545 19.094 3.49997 19.225C6.19487 19.5576 8.91024 19.6955 11.625 19.6375C16 19.7 19.8375 19.6375 24.375 19.2875C25.0968 19.1645 25.764 18.8244 26.2875 18.3125C26.6374 17.9624 26.8988 17.5339 27.05 17.0625C27.497 15.6908 27.7166 14.2551 27.7 12.8125C27.75 12.1125 27.75 7.88748 27.75 7.13748ZM11.175 13.5625V5.82498L18.575 9.71248C16.5 10.8625 13.7625 12.1625 11.175 13.5625Z" fill="white"/>
</svg>
